<svg width="198" height="40" viewBox="0 0 198 40" fill="none" xmlns="http://www.w3.org/2000/svg">
<path d="M34.1422 5.85781C30.3647 2.08031 25.3422 0 20 0C14.6578 0 9.63531 2.08031 5.85781 5.85781C2.08031 9.63531 0 14.6578 0 20C0 25.3422 2.08039 30.3646 5.85781 34.1422C9.63523 37.9198 14.6578 40 20 40C25.3422 40 30.3647 37.9197 34.1422 34.1422C37.9197 30.3647 40 25.3422 40 20C40 14.6578 37.9196 9.63539 34.1422 5.85781Z" fill="#33CC95"/>
<path d="M59.0333 17.464H56.7053V28H53.2973V17.464H51.7853V14.704H53.2973V14.032C53.2973 12.4 53.7613 11.2 54.6893 10.432C55.6173 9.664 57.0173 9.304 58.8893 9.352V12.184C58.0733 12.168 57.5053 12.304 57.1853 12.592C56.8653 12.88 56.7053 13.4 56.7053 14.152V14.704H59.0333V17.464ZM62.9147 13.12C62.3227 13.12 61.8267 12.936 61.4267 12.568C61.0427 12.184 60.8507 11.712 60.8507 11.152C60.8507 10.592 61.0427 10.128 61.4267 9.76C61.8267 9.376 62.3227 9.184 62.9147 9.184C63.5067 9.184 63.9947 9.376 64.3787 9.76C64.7787 10.128 64.9787 10.592 64.9787 11.152C64.9787 11.712 64.7787 12.184 64.3787 12.568C63.9947 12.936 63.5067 13.12 62.9147 13.12ZM64.5707 14.704V28H61.2107V14.704H64.5707ZM75.2584 14.512C76.8424 14.512 78.1224 15.016 79.0984 16.024C80.0744 17.016 80.5624 18.408 80.5624 20.2V28H77.2024V20.656C77.2024 19.6 76.9384 18.792 76.4104 18.232C75.8824 17.656 75.1624 17.368 74.2504 17.368C73.3224 17.368 72.5864 17.656 72.0424 18.232C71.5144 18.792 71.2504 19.6 71.2504 20.656V28H67.8904V14.704H71.2504V16.36C71.6984 15.784 72.2664 15.336 72.9544 15.016C73.6584 14.68 74.4264 14.512 75.2584 14.512ZM82.8936 21.304C82.8936 19.96 83.1576 18.768 83.6856 17.728C84.2296 16.688 84.9576 15.888 85.8696 15.328C86.7976 14.768 87.8296 14.488 88.9656 14.488C89.9576 14.488 90.8216 14.688 91.5576 15.088C92.3096 15.488 92.9096 15.992 93.3576 16.6V14.704H96.7416V28H93.3576V26.056C92.9256 26.68 92.3256 27.2 91.5576 27.616C90.8056 28.016 89.9336 28.216 88.9416 28.216C87.8216 28.216 86.7976 27.928 85.8696 27.352C84.9576 26.776 84.2296 25.968 83.6856 24.928C83.1576 23.872 82.8936 22.664 82.8936 21.304ZM93.3576 21.352C93.3576 20.536 93.1976 19.84 92.8776 19.264C92.5576 18.672 92.1256 18.224 91.5816 17.92C91.0376 17.6 90.4536 17.44 89.8296 17.44C89.2056 17.44 88.6296 17.592 88.1016 17.896C87.5736 18.2 87.1416 18.648 86.8056 19.24C86.4856 19.816 86.3256 20.504 86.3256 21.304C86.3256 22.104 86.4856 22.808 86.8056 23.416C87.1416 24.008 87.5736 24.464 88.1016 24.784C88.6456 25.104 89.2216 25.264 89.8296 25.264C90.4536 25.264 91.0376 25.112 91.5816 24.808C92.1256 24.488 92.5576 24.04 92.8776 23.464C93.1976 22.872 93.3576 22.168 93.3576 21.352ZM107.391 14.512C108.975 14.512 110.255 15.016 111.231 16.024C112.207 17.016 112.695 18.408 112.695 20.2V28H109.335V20.656C109.335 19.6 109.071 18.792 108.543 18.232C108.015 17.656 107.295 17.368 106.383 17.368C105.455 17.368 104.719 17.656 104.175 18.232C103.647 18.792 103.383 19.6 103.383 20.656V28H100.023V14.704H103.383V16.36C103.831 15.784 104.399 15.336 105.087 15.016C105.791 14.68 106.559 14.512 107.391 14.512ZM115.026 21.352C115.026 19.976 115.306 18.776 115.866 17.752C116.426 16.712 117.202 15.912 118.194 15.352C119.186 14.776 120.322 14.488 121.602 14.488C123.25 14.488 124.61 14.904 125.682 15.736C126.77 16.552 127.498 17.704 127.866 19.192H124.242C124.05 18.616 123.722 18.168 123.258 17.848C122.81 17.512 122.25 17.344 121.578 17.344C120.618 17.344 119.858 17.696 119.298 18.4C118.738 19.088 118.458 20.072 118.458 21.352C118.458 22.616 118.738 23.6 119.298 24.304C119.858 24.992 120.618 25.336 121.578 25.336C122.938 25.336 123.826 24.728 124.242 23.512H127.866C127.498 24.952 126.77 26.096 125.682 26.944C124.594 27.792 123.234 28.216 121.602 28.216C120.322 28.216 119.186 27.936 118.194 27.376C117.202 26.8 116.426 26 115.866 24.976C115.306 23.936 115.026 22.728 115.026 21.352ZM142.688 21.064C142.688 21.544 142.656 21.976 142.592 22.36H132.872C132.952 23.32 133.288 24.072 133.88 24.616C134.472 25.16 135.2 25.432 136.064 25.432C137.312 25.432 138.2 24.896 138.728 23.824H142.352C141.968 25.104 141.232 26.16 140.144 26.992C139.056 27.808 137.72 28.216 136.136 28.216C134.856 28.216 133.704 27.936 132.68 27.376C131.672 26.8 130.88 25.992 130.304 24.952C129.744 23.912 129.464 22.712 129.464 21.352C129.464 19.976 129.744 18.768 130.304 17.728C130.864 16.688 131.648 15.888 132.656 15.328C133.664 14.768 134.824 14.488 136.136 14.488C137.4 14.488 138.528 14.76 139.52 15.304C140.528 15.848 141.304 16.624 141.848 17.632C142.408 18.624 142.688 19.768 142.688 21.064ZM139.208 20.104C139.192 19.24 138.88 18.552 138.272 18.04C137.664 17.512 136.92 17.248 136.04 17.248C135.208 17.248 134.504 17.504 133.928 18.016C133.368 18.512 133.024 19.208 132.896 20.104H139.208ZM149.995 21.304C149.995 19.96 150.259 18.768 150.787 17.728C151.331 16.688 152.059 15.888 152.971 15.328C153.899 14.768 154.931 14.488 156.067 14.488C157.059 14.488 157.923 14.688 158.659 15.088C159.411 15.488 160.011 15.992 160.459 16.6V14.704H163.843V28H160.459V26.056C160.027 26.68 159.427 27.2 158.659 27.616C157.907 28.016 157.035 28.216 156.043 28.216C154.923 28.216 153.899 27.928 152.971 27.352C152.059 26.776 151.331 25.968 150.787 24.928C150.259 23.872 149.995 22.664 149.995 21.304ZM160.459 21.352C160.459 20.536 160.299 19.84 159.979 19.264C159.659 18.672 159.227 18.224 158.683 17.92C158.139 17.6 157.555 17.44 156.931 17.44C156.307 17.44 155.731 17.592 155.203 17.896C154.675 18.2 154.243 18.648 153.907 19.24C153.587 19.816 153.427 20.504 153.427 21.304C153.427 22.104 153.587 22.808 153.907 23.416C154.243 24.008 154.675 24.464 155.203 24.784C155.747 25.104 156.323 25.264 156.931 25.264C157.555 25.264 158.139 25.112 158.683 24.808C159.227 24.488 159.659 24.04 159.979 23.464C160.299 22.872 160.459 22.168 160.459 21.352ZM170.485 16.624C170.917 16.016 171.509 15.512 172.261 15.112C173.029 14.696 173.901 14.488 174.877 14.488C176.013 14.488 177.037 14.768 177.949 15.328C178.877 15.888 179.605 16.688 180.133 17.728C180.677 18.752 180.949 19.944 180.949 21.304C180.949 22.664 180.677 23.872 180.133 24.928C179.605 25.968 178.877 26.776 177.949 27.352C177.037 27.928 176.013 28.216 174.877 28.216C173.901 28.216 173.037 28.016 172.285 27.616C171.549 27.216 170.949 26.712 170.485 26.104V34.336H167.125V14.704H170.485V16.624ZM177.517 21.304C177.517 20.504 177.349 19.816 177.013 19.24C176.693 18.648 176.261 18.2 175.717 17.896C175.189 17.592 174.613 17.44 173.989 17.44C173.381 17.44 172.805 17.6 172.261 17.92C171.733 18.224 171.301 18.672 170.965 19.264C170.645 19.856 170.485 20.552 170.485 21.352C170.485 22.152 170.645 22.848 170.965 23.44C171.301 24.032 171.733 24.488 172.261 24.808C172.805 25.112 173.381 25.264 173.989 25.264C174.613 25.264 175.189 25.104 175.717 24.784C176.261 24.464 176.693 24.008 177.013 23.416C177.349 22.824 177.517 22.12 177.517 21.304ZM186.75 16.624C187.182 16.016 187.774 15.512 188.526 15.112C189.294 14.696 190.166 14.488 191.142 14.488C192.278 14.488 193.302 14.768 194.214 15.328C195.142 15.888 195.87 16.688 196.398 17.728C196.942 18.752 197.214 19.944 197.214 21.304C197.214 22.664 196.942 23.872 196.398 24.928C195.87 25.968 195.142 26.776 194.214 27.352C193.302 27.928 192.278 28.216 191.142 28.216C190.166 28.216 189.302 28.016 188.55 27.616C187.814 27.216 187.214 26.712 186.75 26.104V34.336H183.39V14.704H186.75V16.624ZM193.782 21.304C193.782 20.504 193.614 19.816 193.278 19.24C192.958 18.648 192.526 18.2 191.982 17.896C191.454 17.592 190.878 17.44 190.254 17.44C189.646 17.44 189.07 17.6 188.526 17.92C187.998 18.224 187.566 18.672 187.23 19.264C186.91 19.856 186.75 20.552 186.75 21.352C186.75 22.152 186.91 22.848 187.23 23.44C187.566 24.032 187.998 24.488 188.526 24.808C189.07 25.112 189.646 25.264 190.254 25.264C190.878 25.264 191.454 25.104 191.982 24.784C192.526 24.464 192.958 24.008 193.278 23.416C193.614 22.824 193.782 22.12 193.782 21.304Z" fill="white"/>
<g clip-path="url(#clip0_35212_209)">
<path d="M20.5714 8V33.1429" stroke="white" stroke-width="2" stroke-linecap="round" stroke-linejoin="round"/>
<path d="M26.2857 12.5714H17.7143C16.6534 12.5714 15.636 12.9929 14.8859 13.743C14.1357 14.4931 13.7143 15.5106 13.7143 16.5714C13.7143 17.6323 14.1357 18.6497 14.8859 19.3999C15.636 20.15 16.6534 20.5714 17.7143 20.5714H23.4286C24.4894 20.5714 25.5069 20.9929 26.257 21.743C27.0072 22.4932 27.4286 23.5106 27.4286 24.5714C27.4286 25.6323 27.0072 26.6497 26.257 27.3999C25.5069 28.15 24.4894 28.5714 23.4286 28.5714H13.7143" stroke="white" stroke-width="2" stroke-linecap="round" stroke-linejoin="round"/>
</g>
<defs>
<clipPath id="clip0_35212_209">
<rect width="27.4286" height="27.4286" fill="white" transform="translate(6.85715 6.85714)"/>
</clipPath>
</defs>
</svg>
